<svg xmlns="http://www.w3.org/2000/svg" viewBox="0 0 512 512"><defs><style>.cls-1{fill:#fff;}</style></defs><g id="Layer_2" data-name="Layer 2"><g id="Layer_1-2" data-name="Layer 1"><path class="cls-1" d="M0,437V75a44.19,44.19,0,0,0,1.14-5.24C4.42,37.11,26.64,11.19,58.43,3.21,63.88,1.84,69.47,1.06,75,0H437a43,43,0,0,0,5.31,1.15A75.42,75.42,0,0,1,508.46,57c1.53,5.9,2.38,12,3.54,18V438a36.78,36.78,0,0,0-1.18,4.79c-3.54,32.47-25.65,58-57.28,66C448.42,510.1,443.18,511,438,512H296c.13-2.32.38-4.64.38-7q0-83.22,0-166.46c0-2.25.27-4.51.48-7.69h59.29c3.92-25.38,7.7-49.9,11.65-75.48H296.4c0-3.34,0-5.79,0-8.24.29-15.64-.07-31.32,1.11-46.89,1-13,7.82-23,20.37-27.92a46.73,46.73,0,0,1,14.55-3c10.48-.48,21-.19,31.49-.31a56.34,56.34,0,0,0,6-.65c1.73-6.18,1.43-59.63-.24-63.76a11.5,11.5,0,0,0-2.23-.79c-24.76-3.83-49.66-6.26-74.61-3-23.49,3.09-43.55,13.32-58.09,32.63-12.64,16.79-18.51,36.09-19,56.88-.47,19.66-.11,39.33-.17,59,0,1.9-.38,3.8-.65,6.34H151v74.8c2.85.17,5.31.44,7.76.44,16.67,0,33.33,0,50,.06,2.07,0,4.14.4,6.87.69v6.89q0,83.24,0,166.46c0,2.32.25,4.64.38,7H74a35.1,35.1,0,0,0-4.78-1.18A75.33,75.33,0,0,1,3.31,454C1.89,448.41,1.09,442.67,0,437Z"/></g></g></svg>